<?xml version="1.0" standalone="no"?>
<!DOCTYPE svg PUBLIC "-//W3C//DTD SVG 20010904//EN"
 "http://www.w3.org/TR/2001/REC-SVG-20010904/DTD/svg10.dtd">
<svg version="1.0" xmlns="http://www.w3.org/2000/svg"
 width="683.000000pt" height="683.000000pt" viewBox="0 0 683.000000 683.000000"
 preserveAspectRatio="xMidYMid meet">
<metadata>
Created by potrace 1.14, written by Peter Selinger 2001-2017
</metadata>
<g transform="translate(0.000000,683.000000) scale(0.100000,-0.100000)"
fill="#000000" stroke="none">
<path d="M2943 5925 c-220 -34 -436 -145 -618 -317 -181 -171 -266 -349 -311
-653 l-17 -112 -141 -17 c-267 -32 -493 -87 -668 -162 -219 -93 -313 -191
-338 -349 -36 -223 104 -351 482 -444 198 -49 351 -72 526 -78 89 -3 162 -9
162 -12 0 -3 -9 -49 -20 -101 -11 -52 -20 -116 -20 -142 l0 -48 -83 0 c-267 0
-607 -196 -725 -417 -46 -87 -72 -198 -79 -333 -12 -267 83 -485 274 -629 78
-59 185 -107 261 -117 l52 -7 35 -73 c40 -83 70 -108 144 -126 55 -12 54 -11
66 -96 12 -93 89 -193 183 -239 66 -32 142 -37 234 -14 l56 14 149 -61 c229
-93 385 -134 617 -163 124 -15 485 -6 646 16 496 68 763 170 1058 406 l92 73
208 2 c144 1 233 6 294 18 319 59 589 263 676 509 30 86 35 228 13 373 l-14
91 41 99 c52 129 72 222 72 337 0 291 -187 624 -410 730 -97 46 -214 78 -303
82 l-71 4 -43 118 c-160 436 -342 742 -650 1093 -298 340 -569 533 -892 639
-124 41 -387 99 -503 111 -125 13 -335 11 -435 -5z m152 -500 c182 -67 321
-239 356 -441 23 -130 -10 -306 -75 -404 l-25 -38 -133 39 c-213 62 -470 106
-726 125 -89 6 -94 8 -104 33 -16 39 -16 237 1 296 51 182 184 332 346 390 92
32 105 34 205 30 60 -2 106 -11 155 -30z m-403 -1496 c892 -308 1035 -353
1248 -390 171 -30 348 -24 539 17 l34 7 -6 -69 c-11 -125 -89 -311 -151 -358
-18 -13 -48 -31 -68 -39 -120 -50 -171 -197 -108 -315 22 -42 49 -64 103 -81
27 -9 39 -19 43 -39 14 -66 28 -96 59 -126 59 -59 160 -69 250 -23 78 39 236
222 330 381 30 51 74 111 97 133 39 35 55 42 146 61 136 29 275 30 366 2 36
-11 99 -43 140 -71 142 -94 215 -206 236 -359 30 -216 -29 -361 -217 -540 -95
-91 -169 -136 -284 -175 -115 -39 -218 -49 -471 -42 l-227 7 -55 -46 c-99 -80
-279 -196 -371 -240 -153 -71 -382 -135 -600 -166 -176 -25 -564 -9 -708 30
-24 6 -26 9 -15 24 12 16 18 16 78 2 196 -47 393 32 470 189 28 58 37 101 56
273 4 38 7 41 52 53 130 34 213 220 199 445 -6 101 -27 165 -85 261 -53 88
-86 110 -130 86 -9 -5 -85 -60 -169 -123 -225 -169 -330 -219 -573 -274 l-115
-25 -70 -68 c-121 -116 -204 -163 -373 -207 -167 -45 -418 -48 -539 -8 -116
38 -265 140 -335 228 -119 149 -157 381 -98 595 11 40 29 89 39 110 64 124
241 243 429 287 109 26 294 22 416 -10 167 -43 267 -100 398 -224 31 -29 59
-49 62 -44 8 14 -56 102 -115 158 -91 85 -212 156 -359 208 l-95 34 3 54 c4
71 37 197 71 273 49 107 142 245 166 245 7 0 145 -46 307 -101z"/>
<path d="M2613 5237 c-23 -50 -78 -169 -122 -264 l-79 -172 46 -27 c26 -15 57
-34 69 -42 22 -13 24 -11 90 122 37 75 70 136 73 136 3 0 35 -49 70 -110 36
-60 67 -110 70 -110 3 0 41 43 84 96 43 52 80 93 83 91 2 -3 24 -71 49 -152
24 -81 49 -154 55 -161 9 -11 23 -9 75 11 36 14 69 27 74 30 9 6 -173 562
-193 588 -10 14 -26 -2 -111 -113 -55 -72 -100 -129 -101 -127 -12 14 -155
250 -155 256 0 4 -8 15 -18 24 -17 16 -20 12 -59 -76z"/>
<path d="M5375 2791 c-191 -68 -338 -227 -365 -398 -15 -92 10 -164 76 -223
56 -49 99 -63 170 -57 64 6 155 36 161 52 2 6 -35 10 -96 10 -111 0 -127 7
-185 78 -24 30 -31 49 -34 97 -4 60 -4 60 39 104 32 31 60 48 102 60 31 9 57
21 57 26 0 6 -27 10 -61 10 l-60 0 23 41 c32 57 114 129 192 170 95 49 84 66
-19 30z"/>
</g>
</svg>
